# xmcd
#
# Track frame offsets: 
#        150
#        27905
#        49256
#        64570
#        92260
#        109349
#        135294
#        150756
#        168793
#        188300
#
# Disc length: 2730 seconds
#
# Revision: 0
# Processed by: cddbd v1.5.2PL0 Copyright (c) Steve Scherf et al.
# Submitted via: ExactAudioCopy v0.99pb4
#
DISCID=640aa80a
DTITLE=Bare Bones Boogie Band - Bare Bones Boogie Band
DYEAR=2010
DGENRE=Blues
TTITLE0=Baby, Baby Be Mine
TTITLE1=Black Cat Strikes Back
TTITLE2=Full Tilt Boogie Man
TTITLE3=One Good Man
TTITLE4=Sister Sunshine
TTITLE5=I'd Rather Go Blind
TTITLE6=Live With Me
TTITLE7=Simple Suggestion
TTITLE8=Throw Me A Line
TTITLE9=Early Monday Morning
EXTD=
EXTT0=
EXTT1=
EXTT2=
EXTT3=
EXTT4=
EXTT5=
EXTT6=
EXTT7=
EXTT8=
EXTT9=
PLAYORDER=
